<?xml version="1.0" encoding="UTF-8" standalone="no"?>
<!-- Created with Inkscape (http://www.inkscape.org/) -->

<svg
   xmlns:dc="http://purl.org/dc/elements/1.1/"
   xmlns:cc="http://creativecommons.org/ns#"
   xmlns:rdf="http://www.w3.org/1999/02/22-rdf-syntax-ns#"
   xmlns:svg="http://www.w3.org/2000/svg"
   xmlns="http://www.w3.org/2000/svg"
   xmlns:sodipodi="http://sodipodi.sourceforge.net/DTD/sodipodi-0.dtd"
   xmlns:inkscape="http://www.inkscape.org/namespaces/inkscape"
   width="700mm"
   height="460mm"
   viewBox="0 0 2480.3149 1629.9213"
   id="svg2"
   version="1.1"
   inkscape:version="0.91 r13725"
   sodipodi:docname="borne_acier.svg">
  <defs
     id="defs4" />
  <sodipodi:namedview
     id="base"
     pagecolor="#ffffff"
     bordercolor="#666666"
     borderopacity="1.0"
     inkscape:pageopacity="0.0"
     inkscape:pageshadow="2"
     inkscape:zoom="0.61620621"
     inkscape:cx="1219.116"
     inkscape:cy="774.31298"
     inkscape:document-units="mm"
     inkscape:current-layer="layer1"
     showgrid="false"
     inkscape:window-width="2558"
     inkscape:window-height="1418"
     inkscape:window-x="0"
     inkscape:window-y="788"
     inkscape:window-maximized="1"
     width="700mm"
     showguides="true"
     inkscape:guide-bbox="true">
    <sodipodi:guide
       position="0,513.77954"
       orientation="0,1"
       id="guide4354"
       inkscape:label=""
       inkscape:color="rgb(0,0,255)" />
    <sodipodi:guide
       position="372.04724,0"
       orientation="1,0"
       id="guide4356"
       inkscape:label=""
       inkscape:color="rgb(0,0,255)" />
    <sodipodi:guide
       position="1559.0551,0"
       orientation="1,0"
       id="guide4358"
       inkscape:label=""
       inkscape:color="rgb(0,0,255)" />
    <sodipodi:guide
       position="1240.1575,0"
       orientation="1,0"
       id="guide4495"
       inkscape:label=""
       inkscape:color="rgb(0,0,255)" />
    <sodipodi:guide
       position="0,1222.441"
       orientation="0,1"
       id="guide4497"
       inkscape:label=""
       inkscape:color="rgb(0,0,255)" />
    <sodipodi:guide
       position="2108.2677,0"
       orientation="1,0"
       id="guide4574"
       inkscape:label=""
       inkscape:color="rgb(0,0,255)" />
    <inkscape:grid
       type="xygrid"
       id="grid4518" />
  </sodipodi:namedview>
  <metadata
     id="metadata7">
    <rdf:RDF>
      <cc:Work
         rdf:about="">
        <dc:format>image/svg+xml</dc:format>
        <dc:type
           rdf:resource="http://purl.org/dc/dcmitype/StillImage" />
        <dc:title></dc:title>
      </cc:Work>
    </rdf:RDF>
  </metadata>
  <g
     inkscape:label="Layer 1"
     inkscape:groupmode="layer"
     id="layer1"
     transform="translate(0,577.55905)">
    <rect
       style="fill:none;fill-rule:evenodd;stroke:#000000;stroke-width:0.74409449;stroke-linecap:butt;stroke-linejoin:miter;stroke-miterlimit:4;stroke-dasharray:none;stroke-opacity:1"
       id="rect3336"
       width="2337.8298"
       height="1487.4362"
       x="71.242546"
       y="-506.31653" />
    <circle
       style="fill:none;stroke:#000000;stroke-width:0.74409449;stroke-miterlimit:4;stroke-dasharray:none;stroke-opacity:1"
       id="path4364"
       cy="538.5827"
       cx="1559.0552"
       r="52.700928" />
    <circle
       style="fill:none;stroke:#000000;stroke-width:0.74409449;stroke-miterlimit:4;stroke-dasharray:none;stroke-opacity:1"
       id="path4364-6"
       cy="538.5827"
       cx="372.04724"
       r="52.700928" />
    <path
       style="fill:none;fill-rule:evenodd;stroke:#000000;stroke-width:0.74409449;stroke-linecap:butt;stroke-linejoin:miter;stroke-opacity:1;stroke-miterlimit:4;stroke-dasharray:none"
       d="m 1062.9921,-184.25196 0,-100.98426 354.3307,0 0,100.98426 53.1496,0 0,28.34645 -53.1496,0 0,100.984254 -354.3307,0 0,-100.984254 -53.1496,0 0,-28.34645 z"
       id="path4638"
       inkscape:connector-curvature="0"
       sodipodi:nodetypes="ccccccccccccc" />
    <path
       style="fill:none;stroke:#000000;stroke-width:0.74516886;stroke-miterlimit:4;stroke-dasharray:none;stroke-opacity:1"
       d="m 832.67773,319.26953 a 52.777023,52.777023 0 0 0 -51.75781,42.51563 l -9.88281,0 0,20.52343 9.92187,0 a 52.777023,52.777023 0 0 0 51.71875,42.51563 52.777023,52.777023 0 0 0 51.75782,-42.51563 l 9.88086,0 0,-20.52343 -9.91993,0 a 52.777023,52.777023 0 0 0 -51.71875,-42.51563 z"
       transform="translate(0,-542.12598)"
       id="path4364-3"
       inkscape:connector-curvature="0" />
    <path
       inkscape:connector-curvature="0"
       style="fill:none;stroke:#000000;stroke-width:0.74516886;stroke-miterlimit:4;stroke-dasharray:none;stroke-opacity:1"
       d="m 372.05257,-222.8564 a 52.777023,52.777023 0 0 0 -51.75781,42.51563 l -9.88281,0 0,20.52343 9.92187,0 a 52.777023,52.777023 0 0 0 51.71875,42.51563 52.777023,52.777023 0 0 0 51.75781,-42.51563 l 9.88086,0 0,-20.52343 -9.91993,0 a 52.777023,52.777023 0 0 0 -51.71874,-42.51563 z"
       id="path4364-3-2" />
    <path
       inkscape:connector-curvature="0"
       style="fill:none;stroke:#000000;stroke-width:0.74516886;stroke-miterlimit:4;stroke-dasharray:none;stroke-opacity:1"
       d="m 1647.6431,-222.8564 a 52.777023,52.777023 0 0 0 -51.7578,42.51563 l -9.8828,0 0,20.52343 9.9219,0 a 52.777023,52.777023 0 0 0 51.7187,42.51563 52.777023,52.777023 0 0 0 51.7578,-42.51563 l 9.8809,0 0,-20.52343 -9.92,0 a 52.777023,52.777023 0 0 0 -51.7187,-42.51563 z"
       id="path4364-3-28" />
    <path
       inkscape:connector-curvature="0"
       style="fill:none;stroke:#000000;stroke-width:0.74516886;stroke-miterlimit:4;stroke-dasharray:none;stroke-opacity:1"
       d="m 2108.2731,-222.8564 a 52.777023,52.777023 0 0 0 -51.7578,42.51563 l -9.8829,0 0,20.52343 9.9219,0 a 52.777023,52.777023 0 0 0 51.7188,42.51563 52.777023,52.777023 0 0 0 51.7578,-42.51563 l 9.8808,0 0,-20.52343 -9.9199,0 a 52.777023,52.777023 0 0 0 -51.7187,-42.51563 z"
       id="path4364-3-9" />
    <path
       inkscape:connector-curvature="0"
       style="fill:none;stroke:#000000;stroke-width:0.74516886;stroke-miterlimit:4;stroke-dasharray:none;stroke-opacity:1"
       d="m 658.86682,452.33419 a 52.777023,52.777023 0 0 0 -42.05551,-52.13236 l 0.0875,-9.88243 -20.52262,-0.18179 -0.0879,9.92148 a 52.777023,52.777023 0 0 0 -42.97207,51.34014 52.777023,52.777023 0 0 0 42.05551,52.13236 l -0.0875,9.88048 20.52262,0.18179 0.0879,-9.91954 a 52.777023,52.777023 0 0 0 42.97207,-51.34013 z"
       id="path4364-3-7" />
    <path
       inkscape:connector-curvature="0"
       style="fill:none;stroke:#000000;stroke-width:0.74516886;stroke-miterlimit:4;stroke-dasharray:none;stroke-opacity:1"
       d="m 670.26146,402.41322 a 52.777023,52.777023 0 0 0 42.96431,51.38597 l 0.086,9.88243 20.52266,-0.17855 -0.0863,-9.92149 a 52.777023,52.777023 0 0 0 42.06406,-52.08668 52.777023,52.777023 0 0 0 -42.96431,-51.38597 l -0.086,-9.88048 -20.52266,0.17855 0.0863,9.91955 a 52.777023,52.777023 0 0 0 -42.06407,52.08667 z"
       id="path4364-3-3" />
    <path
       inkscape:connector-curvature="0"
       style="fill:none;stroke:#000000;stroke-width:0.74516886;stroke-miterlimit:4;stroke-dasharray:none;stroke-opacity:1"
       d="m 806.00532,392.19291 a 52.777023,52.777023 0 0 0 3.17018,66.9059 l -5.90457,7.92503 16.45773,12.2619 5.92791,-7.95636 a 52.777023,52.777023 0 0 0 64.99308,-16.07196 52.777023,52.777023 0 0 0 -3.17017,-66.9059 l 5.90339,-7.92347 -16.45773,-12.26189 -5.92674,7.9548 a 52.777023,52.777023 0 0 0 -64.99308,16.07195 z"
       id="path4364-3-6" />
    <path
       inkscape:connector-curvature="0"
       style="fill:none;stroke:#000000;stroke-width:0.74516886;stroke-miterlimit:4;stroke-dasharray:none;stroke-opacity:1"
       d="m 937.48841,434.40478 a 52.777023,52.777023 0 0 0 -15.9211,65.06127 l -7.90846,5.92674 12.30794,16.42333 7.93972,-5.95017 a 52.777023,52.777023 0 0 0 66.88329,3.00617 52.777023,52.777023 0 0 0 15.9211,-65.06127 l 7.9068,-5.92553 -12.3079,-16.42333 -7.9382,5.94898 a 52.777023,52.777023 0 0 0 -66.88319,-3.00619 z"
       id="path4364-3-1" />
    <path
       inkscape:connector-curvature="0"
       style="fill:none;stroke:#000000;stroke-width:0.74516886;stroke-miterlimit:4;stroke-dasharray:none;stroke-opacity:1"
       d="m 918.33616,567.73355 a 52.777023,52.777023 0 0 0 -22.08105,63.23667 l -8.43989,5.14181 10.67789,17.52695 8.47325,-5.16213 a 52.777023,52.777023 0 0 0 66.2876,9.40007 52.777023,52.777023 0 0 0 22.08106,-63.23668 l 8.43828,-5.1408 -10.67793,-17.52695 -8.47161,5.16114 a 52.777023,52.777023 0 0 0 -66.2876,-9.40008 z"
       id="path4364-3-29" />
    <path
       inkscape:connector-curvature="0"
       style="fill:none;stroke:#000000;stroke-width:0.74516886;stroke-miterlimit:4;stroke-dasharray:none;stroke-opacity:1"
       d="m 778.91038,536.37161 a 52.777023,52.777023 0 0 0 14.41277,65.41194 l -4.48285,8.80761 18.29059,9.30944 4.50056,-8.84242 a 52.777023,52.777023 0 0 0 61.3498,-26.8069 52.777023,52.777023 0 0 0 -14.41276,-65.41194 l 4.48196,-8.80587 -18.29059,-9.30944 -4.49968,8.84069 a 52.777023,52.777023 0 0 0 -61.3498,26.80689 z"
       id="path4364-3-31" />
    <path
       inkscape:connector-curvature="0"
       style="fill:none;stroke:#000000;stroke-width:0.74516886;stroke-miterlimit:4;stroke-dasharray:none;stroke-opacity:1"
       d="m 647.13253,553.66964 a 52.777023,52.777023 0 0 0 55.21967,37.91092 l 2.74528,9.49387 19.71572,-5.70104 -2.75607,-9.53139 a 52.777023,52.777023 0 0 0 26.47603,-61.49332 52.777023,52.777023 0 0 0 -55.21968,-37.91092 l -2.74472,-9.492 -19.71573,5.70104 2.75553,9.52953 a 52.777023,52.777023 0 0 0 -26.47604,61.49332 z"
       id="path4364-3-94" />
    <path
       inkscape:connector-curvature="0"
       style="fill:none;stroke:#000000;stroke-width:0.74516886;stroke-miterlimit:4;stroke-dasharray:none;stroke-opacity:1"
       d="m 620.63792,553.23073 a 52.777023,52.777023 0 0 0 -66.0883,-10.89892 l -6.51418,-7.43204 -15.43399,13.52787 6.53993,7.46142 a 52.777023,52.777023 0 0 0 2.11754,66.91729 52.777023,52.777023 0 0 0 66.08831,10.89892 l 6.5129,7.43057 15.43398,-13.52787 -6.53865,-7.45996 a 52.777023,52.777023 0 0 0 -2.11754,-66.91728 z"
       id="path4364-3-78" />
    <path
       inkscape:connector-curvature="0"
       style="fill:none;stroke:#000000;stroke-width:0.74516886;stroke-miterlimit:4;stroke-dasharray:none;stroke-opacity:1"
       d="m 1732.8122,453.15852 a 52.777023,52.777023 0 0 0 23.5483,62.70513 l -3.1877,9.35455 19.4265,6.61996 3.2003,-9.39157 a 52.777023,52.777023 0 0 0 56.9254,-35.24079 52.777023,52.777023 0 0 0 -23.5484,-62.70504 l 3.1871,-9.35266 -19.4265,-6.61996 -3.1996,9.38967 a 52.777023,52.777023 0 0 0 -56.9254,35.24071 z"
       id="path4364-3-4" />
    <path
       inkscape:connector-curvature="0"
       style="fill:none;stroke:#000000;stroke-width:0.74516886;stroke-miterlimit:4;stroke-dasharray:none;stroke-opacity:1"
       d="M 1936.8535,371.04306 A 52.777023,52.777023 0 0 0 1873.255,350.0268 l -5.2828,-8.35236 -17.3452,10.97062 5.3037,8.38544 a 52.777023,52.777023 0 0 0 -8.2859,66.43598 52.777023,52.777023 0 0 0 63.5984,21.01633 l 5.2818,8.35074 17.3452,-10.97062 -5.3026,-8.38376 a 52.777023,52.777023 0 0 0 8.2859,-66.43611 z"
       id="path4364-3-5" />
    <path
       inkscape:connector-curvature="0"
       style="fill:none;stroke:#000000;stroke-width:0.74516886;stroke-miterlimit:4;stroke-dasharray:none;stroke-opacity:1"
       d="m 2066.3768,426.03749 a 52.777023,52.777023 0 0 0 -10.627,-66.13257 l 4.982,-8.5352 -17.7249,-10.34597 -5.0017,8.56896 a 52.777023,52.777023 0 0 0 -62.79,23.23412 52.777023,52.777023 0 0 0 10.6269,66.13256 l -4.981,8.53357 17.7249,10.34596 5.0007,-8.56724 a 52.777023,52.777023 0 0 0 62.7901,-23.23419 z"
       id="path4364-3-0" />
    <path
       inkscape:connector-curvature="0"
       style="fill:none;stroke:#000000;stroke-width:0.74516886;stroke-miterlimit:4;stroke-dasharray:none;stroke-opacity:1"
       d="m 2112.8983,392.01975 a 52.777023,52.777023 0 0 0 -8.5786,66.42934 l -7.1994,6.77037 14.0599,14.95093 7.2278,-6.79709 a 52.777023,52.777023 0 0 0 66.8022,-4.45898 52.777023,52.777023 0 0 0 8.5786,-66.42934 l 7.198,-6.76907 -14.0599,-14.95093 -7.2265,6.79586 a 52.777023,52.777023 0 0 0 -66.8021,4.45891 z"
       id="path4364-3-36" />
    <path
       inkscape:connector-curvature="0"
       style="fill:none;stroke:#000000;stroke-width:0.74516886;stroke-miterlimit:4;stroke-dasharray:none;stroke-opacity:1"
       d="m 1810.498,565.85378 a 52.777023,52.777023 0 0 0 -66.3703,9.02428 l -8.4122,-5.18695 -10.7717,17.46948 8.4455,5.20747 a 52.777023,52.777023 0 0 0 21.7087,63.33355 52.777023,52.777023 0 0 0 66.3702,-9.02428 l 8.4106,5.18595 10.7717,-17.46948 -8.4438,-5.20642 a 52.777023,52.777023 0 0 0 -21.7087,-63.3336 z"
       id="path4364-3-10" />
    <path
       inkscape:connector-curvature="0"
       style="fill:none;stroke:#000000;stroke-width:0.74516886;stroke-miterlimit:4;stroke-dasharray:none;stroke-opacity:1"
       d="m 1944.9235,539.79004 a 52.777023,52.777023 0 0 0 -42.1745,-52.03611 l 0.065,-9.88259 -20.523,-0.13489 -0.065,9.92169 a 52.777023,52.777023 0 0 0 -42.8547,51.43815 52.777023,52.777023 0 0 0 42.1746,52.03611 l -0.065,9.88069 20.523,0.13489 0.065,-9.91969 a 52.777023,52.777023 0 0 0 42.8546,-51.43825 z"
       id="path4364-3-63" />
    <path
       inkscape:connector-curvature="0"
       style="fill:none;stroke:#000000;stroke-width:0.74516886;stroke-miterlimit:4;stroke-dasharray:none;stroke-opacity:1"
       d="m 2074.6234,539.46168 a 52.777023,52.777023 0 0 0 -42.0099,-52.16917 l 0.096,-9.88233 -20.5224,-0.19977 -0.097,9.92133 a 52.777023,52.777023 0 0 0 -43.017,51.30253 52.777023,52.777023 0 0 0 42.0098,52.16917 l -0.096,9.88043 20.5224,0.19977 0.097,-9.91953 a 52.777023,52.777023 0 0 0 43.017,-51.30243 z"
       id="path4364-3-20" />
    <path
       inkscape:connector-curvature="0"
       style="fill:none;stroke:#000000;stroke-width:0.74516886;stroke-miterlimit:4;stroke-dasharray:none;stroke-opacity:1"
       d="m 2202.3988,571.4874 a 52.777023,52.777023 0 0 0 -42.2016,-52.01414 l 0.06,-9.88272 -20.5231,-0.1242 -0.06,9.92172 a 52.777023,52.777023 0 0 0 -42.8278,51.46057 52.777023,52.777023 0 0 0 42.2016,52.01414 l -0.06,9.88062 20.5231,0.1242 0.06,-9.91972 a 52.777023,52.777023 0 0 0 42.8278,-51.46047 z"
       id="path4364-3-61" />
  </g>
</svg>
