<?xml version="1.0"?>
<!DOCTYPE svg PUBLIC "-//W3C//DTD SVG 1.1//EN" "http://www.w3.org/Graphics/SVG/1.1/DTD/svg11.dtd">
<svg width="1866.6mm" height="736.6mm" viewBox="0 0 1866.6 736.6" xmlns="http://www.w3.org/2000/svg" version="1.1">
<g transform="translate(-383.7,418.3) scale(1,-1)">
<path id="Extrude002" d="M 402.0 -100.0 L 402.0 -100.0 L 402.0 400.0 L 402.0 400.0 L 402.0 -100.0 Z " stroke="#000000" stroke-width="0.35 px" style="stroke-width:0.35;stroke-miterlimit:4;stroke-dasharray:none;fill:#cccccc;fill-rule: evenodd "/>
<path id="Extrude002" d="M 402.0 400.0 L 402.0 400.0 L 2232.0 400.0 L 2232.0 400.0 L 402.0 400.0 Z " stroke="#000000" stroke-width="0.35 px" style="stroke-width:0.35;stroke-miterlimit:4;stroke-dasharray:none;fill:#cccccc;fill-rule: evenodd "/>
<path id="Extrude002" d="M 2232.0 -100.0 L 2232.0 -100.0 L 2232.0 400.0 L 2232.0 400.0 L 2232.0 -100.0 Z " stroke="#000000" stroke-width="0.35 px" style="stroke-width:0.35;stroke-miterlimit:4;stroke-dasharray:none;fill:#cccccc;fill-rule: evenodd "/>
<path id="Extrude002" d="M 2097.0 -100.0 L 2097.0 -100.0 L 2232.0 -100.0 L 2232.0 -100.0 L 2097.0 -100.0 Z " stroke="#000000" stroke-width="0.35 px" style="stroke-width:0.35;stroke-miterlimit:4;stroke-dasharray:none;fill:#cccccc;fill-rule: evenodd "/>
<path id="Extrude002" d="M 1982.0 50.0 L 1982.0 50.0 L 2097.0 -100.0 L 2097.0 -100.0 L 1982.0 50.0 Z " stroke="#000000" stroke-width="0.35 px" style="stroke-width:0.35;stroke-miterlimit:4;stroke-dasharray:none;fill:#cccccc;fill-rule: evenodd "/>
<path id="Extrude002" d="M 1437.0 50.0 L 1437.0 50.0 L 1982.0 50.0 L 1982.0 50.0 L 1437.0 50.0 Z " stroke="#000000" stroke-width="0.35 px" style="stroke-width:0.35;stroke-miterlimit:4;stroke-dasharray:none;fill:#cccccc;fill-rule: evenodd "/>
<path id="Extrude002" d="M 1337.47467 -50.0 L 1337.47467 -50.0 L 1437.0 50.0 L 1437.0 50.0 L 1337.47467 -50.0 Z " stroke="#000000" stroke-width="0.35 px" style="stroke-width:0.35;stroke-miterlimit:4;stroke-dasharray:none;fill:#cccccc;fill-rule: evenodd "/>
<path id="Extrude002" d="M 1312.0 -300.0 L 1312.0 -300.0 L 1337.47467 -50.0 L 1337.47467 -50.0 L 1312.0 -300.0 Z " stroke="#000000" stroke-width="0.35 px" style="stroke-width:0.35;stroke-miterlimit:4;stroke-dasharray:none;fill:#cccccc;fill-rule: evenodd "/>
<path id="Extrude002" d="M 1142.0 -300.0 L 1142.0 -300.0 L 1312.0 -300.0 L 1312.0 -300.0 L 1142.0 -300.0 Z " stroke="#000000" stroke-width="0.35 px" style="stroke-width:0.35;stroke-miterlimit:4;stroke-dasharray:none;fill:#cccccc;fill-rule: evenodd "/>
<path id="Extrude002" d="M 1142.0 -100.0 L 1142.0 -100.0 L 1142.0 -300.0 L 1142.0 -300.0 L 1142.0 -100.0 Z " stroke="#000000" stroke-width="0.35 px" style="stroke-width:0.35;stroke-miterlimit:4;stroke-dasharray:none;fill:#cccccc;fill-rule: evenodd "/>
<path id="Extrude002" d="M 402.0 -100.0 L 402.0 -100.0 L 1142.0 -100.0 L 1142.0 -100.0 L 402.0 -100.0 Z " stroke="#000000" stroke-width="0.35 px" style="stroke-width:0.35;stroke-miterlimit:4;stroke-dasharray:none;fill:#cccccc;fill-rule: evenodd "/>
<path id="Extrude002" d="M 402.0 -100.0 L 402.0 400.0 L 2232.0 400.0 L 2232.0 -100.0 L 2097.0 -100.0 L 1982.0 50.0 L 1437.0 50.0 L 1337.47467 -50.0 L 1312.0 -300.0 L 1142.0 -300.0 L 1142.0 -100.0 L 402.0 -100.0 Z " stroke="#000000" stroke-width="0.35 px" style="stroke-width:0.35;stroke-miterlimit:4;stroke-dasharray:none;fill:#cccccc;fill-rule: evenodd "/>
<path id="Extrude002" d="M 402.0 -100.0 L 402.0 400.0 L 2232.0 400.0 L 2232.0 -100.0 L 2097.0 -100.0 L 1982.0 50.0 L 1437.0 50.0 L 1337.47467 -50.0 L 1312.0 -300.0 L 1142.0 -300.0 L 1142.0 -100.0 L 402.0 -100.0 Z " stroke="#000000" stroke-width="0.35 px" style="stroke-width:0.35;stroke-miterlimit:4;stroke-dasharray:none;fill:#cccccc;fill-rule: evenodd "/>
</g>
</svg>